# xmcd
#
# Track frame offsets: 
#        150
#        12035
#        30615
#        43895
#        56775
#        67532
#        79725
#        92667
#        103325
#        115922
#        128440
#
# Disc length: 1878 seconds
#
# Revision: 2
# Processed by: cddbd v1.5.2PL0 Copyright (c) Steve Scherf et al.
# Submitted via: ExactAudioCopyFreeDBPlugin 1.0
#
DISCID=8407540b
DTITLE=Wilson Pickett - Hey Jude
DYEAR=1969
DGENRE=Soul
TTITLE0=Save Me
TTITLE1=Hey Jude
TTITLE2=Back in Your Arms
TTITLE3=Toe Hold
TTITLE4=Night Owl
TTITLE5=My Own Style of Loving
TTITLE6=A Man and a Half
TTITLE7=Sit Down and Talk This Over
TTITLE8=Search Your Heart
TTITLE9=Born to Be Wild
TTITLE10=Poeple Make the World
EXTD=YEAR: 1968
EXTT0=
EXTT1=
EXTT2=
EXTT3=
EXTT4=
EXTT5=
EXTT6=
EXTT7=
EXTT8=
EXTT9=
EXTT10=
PLAYORDER=
